<?xml version="1.0" encoding="UTF-8" standalone="no"?>
<!DOCTYPE svg PUBLIC "-//W3C//DTD SVG 1.1//EN"
 "http://www.w3.org/Graphics/SVG/1.1/DTD/svg11.dtd">
<!-- Generated by graphviz version 2.43.0 (0)
 -->
<!-- Title: spbuild Pages: 1 -->
<svg width="476pt" height="404pt"
 viewBox="0.00 0.00 476.08 404.00" xmlns="http://www.w3.org/2000/svg" xmlns:xlink="http://www.w3.org/1999/xlink">
<g id="graph0" class="graph" transform="scale(1 1) rotate(0) translate(4 400)">
<title>spbuild</title>
<polygon fill="white" stroke="transparent" points="-4,4 -4,-400 472.08,-400 472.08,4 -4,4"/>
<!-- extlibpatch -->
<g id="node1" class="node">
<title>extlibpatch</title>
<ellipse fill="none" stroke="black" cx="120.24" cy="-306" rx="120.48" ry="18"/>
<text text-anchor="middle" x="120.24" y="-302.3" font-family="Times,serif" font-size="14.00">Patch external libraries</text>
</g>
<!-- extlibbuild -->
<g id="node4" class="node">
<title>extlibbuild</title>
<ellipse fill="none" stroke="black" cx="205.24" cy="-234" rx="199.56" ry="18"/>
<text text-anchor="middle" x="205.24" y="-230.3" font-family="Times,serif" font-size="14.00">Build external libraries (some need Perl)</text>
</g>
<!-- extlibpatch&#45;&gt;extlibbuild -->
<g id="edge1" class="edge">
<title>extlibpatch&#45;&gt;extlibbuild</title>
<path fill="none" stroke="black" d="M140.82,-288.05C151.59,-279.18 164.96,-268.17 176.72,-258.48"/>
<polygon fill="black" stroke="black" points="179.06,-261.09 184.56,-252.03 174.61,-255.69 179.06,-261.09"/>
</g>
<!-- pinnedcompiler -->
<g id="node2" class="node">
<title>pinnedcompiler</title>
<ellipse fill="none" stroke="black" cx="319.24" cy="-378" rx="131.88" ry="18"/>
<text text-anchor="middle" x="319.24" y="-374.3" font-family="Times,serif" font-size="14.00">A fixed compiler/toolchain</text>
</g>
<!-- perlbuild -->
<g id="node3" class="node">
<title>perlbuild</title>
<ellipse fill="none" stroke="black" cx="371.24" cy="-306" rx="75.29" ry="18"/>
<text text-anchor="middle" x="371.24" y="-302.3" font-family="Times,serif" font-size="14.00">Build our Perl</text>
</g>
<!-- pinnedcompiler&#45;&gt;perlbuild -->
<g id="edge3" class="edge">
<title>pinnedcompiler&#45;&gt;perlbuild</title>
<path fill="none" stroke="black" d="M331.83,-360.05C338.09,-351.63 345.77,-341.28 352.69,-331.97"/>
<polygon fill="black" stroke="black" points="355.61,-333.9 358.77,-323.79 349.99,-329.73 355.61,-333.9"/>
</g>
<!-- pinnedcompiler&#45;&gt;extlibbuild -->
<g id="edge2" class="edge">
<title>pinnedcompiler&#45;&gt;extlibbuild</title>
<path fill="none" stroke="black" d="M305.95,-359.83C291.97,-341.83 269.26,-312.77 249.24,-288 241.76,-278.74 233.44,-268.67 226.07,-259.82"/>
<polygon fill="black" stroke="black" points="228.72,-257.53 219.62,-252.09 223.34,-262.01 228.72,-257.53"/>
</g>
<!-- perlbuild&#45;&gt;extlibbuild -->
<g id="edge4" class="edge">
<title>perlbuild&#45;&gt;extlibbuild</title>
<path fill="none" stroke="black" d="M335.63,-289.98C311.87,-279.97 280.32,-266.66 254.21,-255.65"/>
<polygon fill="black" stroke="black" points="255.44,-252.37 244.86,-251.71 252.72,-258.82 255.44,-252.37"/>
</g>
<!-- perlmodinstall -->
<g id="node5" class="node">
<title>perlmodinstall</title>
<ellipse fill="none" stroke="black" cx="319.24" cy="-162" rx="148.67" ry="18"/>
<text text-anchor="middle" x="319.24" y="-158.3" font-family="Times,serif" font-size="14.00">Install modules into built Perl</text>
</g>
<!-- perlbuild&#45;&gt;perlmodinstall -->
<g id="edge6" class="edge">
<title>perlbuild&#45;&gt;perlmodinstall</title>
<path fill="none" stroke="black" d="M389.43,-288.18C406.83,-269.97 428.49,-240.27 414.24,-216 406,-201.97 392.56,-191.39 378.34,-183.51"/>
<polygon fill="black" stroke="black" points="379.92,-180.39 369.42,-178.95 376.73,-186.62 379.92,-180.39"/>
</g>
<!-- extlibbuild&#45;&gt;perlmodinstall -->
<g id="edge5" class="edge">
<title>extlibbuild&#45;&gt;perlmodinstall</title>
<path fill="none" stroke="black" d="M232.84,-216.05C247.96,-206.77 266.88,-195.15 283.17,-185.15"/>
<polygon fill="black" stroke="black" points="285.21,-188 291.9,-179.79 281.54,-182.04 285.21,-188"/>
</g>
<!-- perlpackage -->
<g id="node6" class="node">
<title>perlpackage</title>
<ellipse fill="none" stroke="black" cx="319.24" cy="-90" rx="94.78" ry="18"/>
<text text-anchor="middle" x="319.24" y="-86.3" font-family="Times,serif" font-size="14.00">Package built Perl</text>
</g>
<!-- perlmodinstall&#45;&gt;perlpackage -->
<g id="edge7" class="edge">
<title>perlmodinstall&#45;&gt;perlpackage</title>
<path fill="none" stroke="black" d="M319.24,-143.7C319.24,-135.98 319.24,-126.71 319.24,-118.11"/>
<polygon fill="black" stroke="black" points="322.74,-118.1 319.24,-108.1 315.74,-118.1 322.74,-118.1"/>
</g>
<!-- perlrelease -->
<g id="node7" class="node">
<title>perlrelease</title>
<ellipse fill="none" stroke="black" cx="319.24" cy="-18" rx="124.28" ry="18"/>
<text text-anchor="middle" x="319.24" y="-14.3" font-family="Times,serif" font-size="14.00">Release package on web</text>
</g>
<!-- perlpackage&#45;&gt;perlrelease -->
<g id="edge8" class="edge">
<title>perlpackage&#45;&gt;perlrelease</title>
<path fill="none" stroke="black" d="M319.24,-71.7C319.24,-63.98 319.24,-54.71 319.24,-46.11"/>
<polygon fill="black" stroke="black" points="322.74,-46.1 319.24,-36.1 315.74,-46.1 322.74,-46.1"/>
</g>
</g>
</svg>
