<?xml version="1.0" encoding="UTF-8" standalone="no"?>
<!DOCTYPE svg PUBLIC "-//W3C//DTD SVG 1.1//EN"
 "http://www.w3.org/Graphics/SVG/1.1/DTD/svg11.dtd">
<!-- Generated by graphviz version 2.43.0 (0)
 -->
<!-- Title: spbuild Pages: 1 -->
<svg width="530pt" height="332pt"
 viewBox="0.00 0.00 530.18 332.00" xmlns="http://www.w3.org/2000/svg" xmlns:xlink="http://www.w3.org/1999/xlink">
<g id="graph0" class="graph" transform="scale(1 1) rotate(0) translate(4 328)">
<title>spbuild</title>
<polygon fill="white" stroke="transparent" points="-4,4 -4,-328 526.18,-328 526.18,4 -4,4"/>
<!-- extlibpatch -->
<g id="node1" class="node">
<title>extlibpatch</title>
<ellipse fill="none" stroke="black" cx="120.24" cy="-306" rx="120.48" ry="18"/>
<text text-anchor="middle" x="120.24" y="-302.3" font-family="Times,serif" font-size="14.00">Patch external libraries</text>
</g>
<!-- extlibbuild -->
<g id="node4" class="node">
<title>extlibbuild</title>
<ellipse fill="none" stroke="black" cx="178.24" cy="-234" rx="118.08" ry="18"/>
<text text-anchor="middle" x="178.24" y="-230.3" font-family="Times,serif" font-size="14.00">Build external libraries</text>
</g>
<!-- extlibpatch&#45;&gt;extlibbuild -->
<g id="edge1" class="edge">
<title>extlibpatch&#45;&gt;extlibbuild</title>
<path fill="none" stroke="black" d="M134.28,-288.05C141.23,-279.67 149.76,-269.38 157.45,-260.1"/>
<polygon fill="black" stroke="black" points="160.24,-262.21 163.93,-252.28 154.85,-257.74 160.24,-262.21"/>
</g>
<!-- pinnedcompiler -->
<g id="node2" class="node">
<title>pinnedcompiler</title>
<ellipse fill="none" stroke="black" cx="390.24" cy="-306" rx="131.88" ry="18"/>
<text text-anchor="middle" x="390.24" y="-302.3" font-family="Times,serif" font-size="14.00">A fixed compiler/toolchain</text>
</g>
<!-- perlbuild -->
<g id="node3" class="node">
<title>perlbuild</title>
<ellipse fill="none" stroke="black" cx="390.24" cy="-234" rx="75.29" ry="18"/>
<text text-anchor="middle" x="390.24" y="-230.3" font-family="Times,serif" font-size="14.00">Build our Perl</text>
</g>
<!-- pinnedcompiler&#45;&gt;perlbuild -->
<g id="edge3" class="edge">
<title>pinnedcompiler&#45;&gt;perlbuild</title>
<path fill="none" stroke="black" d="M390.24,-287.7C390.24,-279.98 390.24,-270.71 390.24,-262.11"/>
<polygon fill="black" stroke="black" points="393.74,-262.1 390.24,-252.1 386.74,-262.1 393.74,-262.1"/>
</g>
<!-- pinnedcompiler&#45;&gt;extlibbuild -->
<g id="edge2" class="edge">
<title>pinnedcompiler&#45;&gt;extlibbuild</title>
<path fill="none" stroke="black" d="M342.4,-289.2C310.61,-278.71 268.71,-264.87 235.2,-253.81"/>
<polygon fill="black" stroke="black" points="236.13,-250.43 225.54,-250.62 233.94,-257.08 236.13,-250.43"/>
</g>
<!-- perlmodinstall -->
<g id="node5" class="node">
<title>perlmodinstall</title>
<ellipse fill="none" stroke="black" cx="284.24" cy="-162" rx="148.67" ry="18"/>
<text text-anchor="middle" x="284.24" y="-158.3" font-family="Times,serif" font-size="14.00">Install modules into built Perl</text>
</g>
<!-- perlbuild&#45;&gt;perlmodinstall -->
<g id="edge5" class="edge">
<title>perlbuild&#45;&gt;perlmodinstall</title>
<path fill="none" stroke="black" d="M365.92,-216.94C351.92,-207.7 334.1,-195.93 318.68,-185.74"/>
<polygon fill="black" stroke="black" points="320.2,-182.55 309.92,-179.96 316.34,-188.39 320.2,-182.55"/>
</g>
<!-- extlibbuild&#45;&gt;perlmodinstall -->
<g id="edge4" class="edge">
<title>extlibbuild&#45;&gt;perlmodinstall</title>
<path fill="none" stroke="black" d="M203.63,-216.23C217.56,-207.04 235.01,-195.51 250.11,-185.54"/>
<polygon fill="black" stroke="black" points="252.27,-188.3 258.69,-179.87 248.42,-182.46 252.27,-188.3"/>
</g>
<!-- perlpackage -->
<g id="node6" class="node">
<title>perlpackage</title>
<ellipse fill="none" stroke="black" cx="284.24" cy="-90" rx="94.78" ry="18"/>
<text text-anchor="middle" x="284.24" y="-86.3" font-family="Times,serif" font-size="14.00">Package built Perl</text>
</g>
<!-- perlmodinstall&#45;&gt;perlpackage -->
<g id="edge6" class="edge">
<title>perlmodinstall&#45;&gt;perlpackage</title>
<path fill="none" stroke="black" d="M284.24,-143.7C284.24,-135.98 284.24,-126.71 284.24,-118.11"/>
<polygon fill="black" stroke="black" points="287.74,-118.1 284.24,-108.1 280.74,-118.1 287.74,-118.1"/>
</g>
<!-- perlrelease -->
<g id="node7" class="node">
<title>perlrelease</title>
<ellipse fill="none" stroke="black" cx="284.24" cy="-18" rx="124.28" ry="18"/>
<text text-anchor="middle" x="284.24" y="-14.3" font-family="Times,serif" font-size="14.00">Release package on web</text>
</g>
<!-- perlpackage&#45;&gt;perlrelease -->
<g id="edge7" class="edge">
<title>perlpackage&#45;&gt;perlrelease</title>
<path fill="none" stroke="black" d="M284.24,-71.7C284.24,-63.98 284.24,-54.71 284.24,-46.11"/>
<polygon fill="black" stroke="black" points="287.74,-46.1 284.24,-36.1 280.74,-46.1 287.74,-46.1"/>
</g>
</g>
</svg>
